<?xml version="1.0" encoding="UTF-8" standalone="no"?>
<svg
   xmlns:dc="http://purl.org/dc/elements/1.1/"
   xmlns:cc="http://creativecommons.org/ns#"
   xmlns:rdf="http://www.w3.org/1999/02/22-rdf-syntax-ns#"
   xmlns:svg="http://www.w3.org/2000/svg"
   xmlns="http://www.w3.org/2000/svg"
   xmlns:sodipodi="http://sodipodi.sourceforge.net/DTD/sodipodi-0.dtd"
   xmlns:inkscape="http://www.inkscape.org/namespaces/inkscape"
   viewBox="0 0 512 512"
   version="1.1"
   id="svg21"
   sodipodi:docname="buttonSolid+.svg"
   inkscape:version="0.92.4 (5da689c313, 2019-01-14)">
  <metadata
     id="metadata27">
    <rdf:RDF>
      <cc:Work
         rdf:about="">
        <dc:format>image/svg+xml</dc:format>
        <dc:type
           rdf:resource="http://purl.org/dc/dcmitype/StillImage" />
        <dc:title></dc:title>
      </cc:Work>
    </rdf:RDF>
  </metadata>
  <defs
     id="defs25" />
  <sodipodi:namedview
     pagecolor="#ffffff"
     bordercolor="#666666"
     borderopacity="1"
     objecttolerance="10"
     gridtolerance="10"
     guidetolerance="10"
     inkscape:pageopacity="0"
     inkscape:pageshadow="2"
     inkscape:window-width="1266"
     inkscape:window-height="667"
     id="namedview23"
     showgrid="false"
     inkscape:zoom="0.4609375"
     inkscape:cx="-71.59322"
     inkscape:cy="256"
     inkscape:window-x="49"
     inkscape:window-y="9"
     inkscape:window-maximized="0"
     inkscape:current-layer="svg21" />
  <linearGradient
     id="a"
     gradientTransform="matrix(1 0 0 -1 0 -16402)"
     gradientUnits="userSpaceOnUse"
     x1="0"
     x2="512"
     y1="-16658"
     y2="-16658">
    <stop
       offset="0"
       stop-color="#31d8ff"
       id="stop2" />
    <stop
       offset="1"
       stop-color="#ff80ff"
       id="stop4" />
  </linearGradient>
  <path
     d="m512 256c0 141.386719-114.613281 256-256 256s-256-114.613281-256-256 114.613281-256 256-256 256 114.613281 256 256zm0 0"
     fill="url(#a)"
     id="path7"
     style="fill-rule:evenodd;fill:#ffcc66;fill-opacity:1" />
  <g
     fill="#fff"
     id="g19">
    <path
       d="m256 56c-8.285156 0-15 6.714844-15 15s6.714844 15 15 15c93.738281 0 170 76.261719 170 170s-76.261719 170-170 170-170-76.261719-170-170c0-8.285156-6.714844-15-15-15s-15 6.714844-15 15c0 110.28125 89.71875 200 200 200s200-89.71875 200-200-89.71875-200-200-200zm0 0"
       id="path9" />
    <path
       d="m175.070312 104.285156c1.914063 0 3.855469-.367187 5.734376-1.144531l20.277343-8.398437c7.652344-3.171876 11.289063-11.945313 8.117188-19.601563-3.167969-7.652344-11.945313-11.285156-19.597657-8.117187l-20.277343 8.398437c-7.652344 3.171875-11.289063 11.945313-8.121094 19.601563 2.394531 5.777343 7.980469 9.261718 13.867187 9.261718zm0 0"
       id="path11" />
    <path
       d="m117.425781 147.945312c3.839844 0 7.675781-1.464843 10.605469-4.394531l15.519531-15.519531c5.859375-5.859375 5.859375-15.355469 0-21.214844-5.855469-5.855468-15.355469-5.855468-21.210937 0l-15.523438 15.523438c-5.855468 5.855468-5.855468 15.351562 0 21.210937 2.929688 2.929688 6.769532 4.394531 10.609375 4.394531zm0 0"
       id="path13" />
    <path
       d="m75.144531 209.199219c1.875.777343 3.820313 1.148437 5.734375 1.148437 5.882813 0 11.46875-3.488281 13.863282-9.265625l8.398437-20.277343c3.167969-7.652344-.464844-16.429688-8.117187-19.597657-7.65625-3.171875-16.429688.464844-19.601563 8.117188l-8.398437 20.277343c-3.167969 7.65625.464843 16.429688 8.121093 19.597657zm0 0"
       id="path15" />
    <path
       d="m256 178.289062c-8.285156 0-15 6.714844-15 15v47.710938h-47.710938c-8.285156 0-15 6.714844-15 15s6.714844 15 15 15h47.710938v47.710938c0 8.285156 6.714844 15 15 15s15-6.714844 15-15v-47.710938h47.710938c8.285156 0 15-6.714844 15-15s-6.714844-15-15-15h-47.710938v-47.710938c0-8.285156-6.714844-15-15-15zm0 0"
       id="path17" />
  </g>
</svg>
